<mxfile host="Electron" agent="Mozilla/5.0 (X11; Linux x86_64) AppleWebKit/537.36 (KHTML, like Gecko) draw.io/27.0.2 Chrome/134.0.6998.205 Electron/35.3.0 Safari/537.36" version="27.0.2">
  <diagram name="Page-1" id="rumqVNAoI3cSyf27jc9k">
    <mxGraphModel dx="1732" dy="1046" grid="1" gridSize="10" guides="1" tooltips="1" connect="1" arrows="1" fold="1" page="1" pageScale="1" pageWidth="1700" pageHeight="1100" math="0" shadow="0">
      <root>
        <mxCell id="0" />
        <mxCell id="1" parent="0" />
        <mxCell id="Z4UGgO07Boh3uOqIA6wf-1" value="" style="endArrow=none;dashed=1;html=1;dashPattern=1 3;strokeWidth=2;rounded=0;" edge="1" parent="1">
          <mxGeometry width="50" height="50" relative="1" as="geometry">
            <mxPoint x="710" y="820" as="sourcePoint" />
            <mxPoint x="710" y="20" as="targetPoint" />
          </mxGeometry>
        </mxCell>
        <mxCell id="-hpIVWVpJWwLuPx6lPaj-3" value="" style="rounded=0;whiteSpace=wrap;html=1;" parent="1" vertex="1">
          <mxGeometry x="20" y="80" width="490" height="560" as="geometry" />
        </mxCell>
        <mxCell id="-hpIVWVpJWwLuPx6lPaj-4" value="" style="rounded=0;whiteSpace=wrap;html=1;" parent="1" vertex="1">
          <mxGeometry x="930" y="80" width="560" height="450" as="geometry" />
        </mxCell>
        <mxCell id="-hpIVWVpJWwLuPx6lPaj-5" value="&lt;h1 style=&quot;margin-top: 0px;&quot;&gt;Hardware&lt;/h1&gt;" style="text;html=1;whiteSpace=wrap;overflow=hidden;rounded=0;" parent="1" vertex="1">
          <mxGeometry x="20" y="40" width="170" height="30" as="geometry" />
        </mxCell>
        <mxCell id="-hpIVWVpJWwLuPx6lPaj-6" value="&lt;h1 style=&quot;margin-top: 0px;&quot;&gt;Software&lt;/h1&gt;" style="text;html=1;whiteSpace=wrap;overflow=hidden;rounded=0;" parent="1" vertex="1">
          <mxGeometry x="930" y="30" width="170" height="30" as="geometry" />
        </mxCell>
        <mxCell id="CpTM82QqQ-CoCST9rDbI-1" value="" style="rounded=1;whiteSpace=wrap;html=1;" parent="1" vertex="1">
          <mxGeometry x="630" y="90" width="160" height="540" as="geometry" />
        </mxCell>
        <mxCell id="CpTM82QqQ-CoCST9rDbI-2" value="&lt;h1 style=&quot;margin-top: 0px;&quot;&gt;Avalon Bus&lt;/h1&gt;" style="text;html=1;whiteSpace=wrap;overflow=hidden;rounded=0;" parent="1" vertex="1">
          <mxGeometry x="640" y="335" width="150" height="40" as="geometry" />
        </mxCell>
        <mxCell id="CpTM82QqQ-CoCST9rDbI-3" value="" style="rounded=0;whiteSpace=wrap;html=1;" parent="1" vertex="1">
          <mxGeometry x="130" y="115" width="325" height="230" as="geometry" />
        </mxCell>
        <mxCell id="CpTM82QqQ-CoCST9rDbI-4" value="" style="rounded=0;whiteSpace=wrap;html=1;" parent="1" vertex="1">
          <mxGeometry x="60" y="410" width="410" height="190" as="geometry" />
        </mxCell>
        <mxCell id="CpTM82QqQ-CoCST9rDbI-5" value="&lt;h1 style=&quot;margin-top: 0px;&quot;&gt;Calculation Accelerator&lt;/h1&gt;" style="text;html=1;whiteSpace=wrap;overflow=hidden;rounded=0;" parent="1" vertex="1">
          <mxGeometry x="145" y="80" width="310" height="30" as="geometry" />
        </mxCell>
        <mxCell id="CpTM82QqQ-CoCST9rDbI-7" value="&lt;h1 style=&quot;margin-top: 0px;&quot;&gt;Visual Interface&lt;/h1&gt;" style="text;html=1;whiteSpace=wrap;overflow=hidden;rounded=0;" parent="1" vertex="1">
          <mxGeometry x="60" y="370" width="310" height="30" as="geometry" />
        </mxCell>
        <mxCell id="xd3VyKE5f3C1c7quR3OM-10" value="&lt;h1 style=&quot;margin-top: 0px;&quot;&gt;&lt;span style=&quot;font-size: 15px;&quot;&gt;readdata (32)&lt;/span&gt;&lt;/h1&gt;" style="text;html=1;whiteSpace=wrap;overflow=hidden;rounded=0;rotation=0;" parent="1" vertex="1">
          <mxGeometry x="520" y="80" width="100" height="40" as="geometry" />
        </mxCell>
        <mxCell id="xd3VyKE5f3C1c7quR3OM-14" value="&lt;h1 style=&quot;margin-top: 0px;&quot;&gt;&lt;span style=&quot;font-size: 15px;&quot;&gt;writedata (32)&lt;/span&gt;&lt;/h1&gt;" style="text;html=1;whiteSpace=wrap;overflow=hidden;rounded=0;rotation=0;" parent="1" vertex="1">
          <mxGeometry x="520" y="120" width="100" height="40" as="geometry" />
        </mxCell>
        <mxCell id="xd3VyKE5f3C1c7quR3OM-16" value="&lt;h1 style=&quot;margin-top: 0px;&quot;&gt;&lt;span style=&quot;font-size: 15px;&quot;&gt;address (16)&lt;/span&gt;&lt;/h1&gt;" style="text;html=1;whiteSpace=wrap;overflow=hidden;rounded=0;rotation=0;" parent="1" vertex="1">
          <mxGeometry x="520" y="150" width="100" height="40" as="geometry" />
        </mxCell>
        <mxCell id="xd3VyKE5f3C1c7quR3OM-18" value="&lt;h1 style=&quot;margin-top: 0px;&quot;&gt;&lt;span style=&quot;font-size: 15px;&quot;&gt;write&lt;/span&gt;&lt;/h1&gt;" style="text;html=1;whiteSpace=wrap;overflow=hidden;rounded=0;rotation=0;" parent="1" vertex="1">
          <mxGeometry x="540" y="180" width="100" height="40" as="geometry" />
        </mxCell>
        <mxCell id="xd3VyKE5f3C1c7quR3OM-20" value="&lt;h1 style=&quot;margin-top: 0px;&quot;&gt;&lt;span style=&quot;font-size: 15px;&quot;&gt;chipselect&lt;/span&gt;&lt;/h1&gt;&lt;div&gt;&lt;br&gt;&lt;/div&gt;" style="text;html=1;whiteSpace=wrap;overflow=hidden;rounded=0;rotation=0;" parent="1" vertex="1">
          <mxGeometry x="530" y="210" width="100" height="40" as="geometry" />
        </mxCell>
        <mxCell id="xd3VyKE5f3C1c7quR3OM-32" value="&lt;h1 style=&quot;margin-top: 0px;&quot;&gt;&lt;span style=&quot;font-size: 15px;&quot;&gt;clk&lt;/span&gt;&lt;/h1&gt;" style="text;html=1;whiteSpace=wrap;overflow=hidden;rounded=0;rotation=0;" parent="1" vertex="1">
          <mxGeometry x="555" y="240" width="30" height="40" as="geometry" />
        </mxCell>
        <mxCell id="xd3VyKE5f3C1c7quR3OM-36" value="&lt;h1 style=&quot;margin-top: 0px;&quot;&gt;&lt;span style=&quot;font-size: 15px;&quot;&gt;rst&lt;/span&gt;&lt;/h1&gt;" style="text;html=1;whiteSpace=wrap;overflow=hidden;rounded=0;rotation=0;" parent="1" vertex="1">
          <mxGeometry x="555" y="280" width="30" height="30" as="geometry" />
        </mxCell>
        <mxCell id="xd3VyKE5f3C1c7quR3OM-52" value="&lt;h1 style=&quot;margin-top: 0px;&quot;&gt;&lt;span style=&quot;font-size: 15px;&quot;&gt;iowrite32&lt;/span&gt;&lt;/h1&gt;" style="text;html=1;whiteSpace=wrap;overflow=hidden;rounded=0;rotation=0;" parent="1" vertex="1">
          <mxGeometry x="820" y="240" width="100" height="40" as="geometry" />
        </mxCell>
        <mxCell id="9Da5NlRfkUuHMolCBsCd-2" value="&lt;h1 style=&quot;margin-top: 0px;&quot;&gt;&lt;span style=&quot;font-size: 15px;&quot;&gt;ioread32&lt;/span&gt;&lt;/h1&gt;" style="text;html=1;whiteSpace=wrap;overflow=hidden;rounded=0;rotation=0;" parent="1" vertex="1">
          <mxGeometry x="820" y="210" width="100" height="40" as="geometry" />
        </mxCell>
        <mxCell id="9Da5NlRfkUuHMolCBsCd-8" style="edgeStyle=orthogonalEdgeStyle;rounded=0;orthogonalLoop=1;jettySize=auto;html=1;exitX=0.5;exitY=1;exitDx=0;exitDy=0;" parent="1" source="-hpIVWVpJWwLuPx6lPaj-3" target="-hpIVWVpJWwLuPx6lPaj-3" edge="1">
          <mxGeometry relative="1" as="geometry" />
        </mxCell>
        <mxCell id="9Da5NlRfkUuHMolCBsCd-11" style="edgeStyle=orthogonalEdgeStyle;rounded=0;orthogonalLoop=1;jettySize=auto;html=1;exitX=0.5;exitY=1;exitDx=0;exitDy=0;" parent="1" source="-hpIVWVpJWwLuPx6lPaj-3" target="-hpIVWVpJWwLuPx6lPaj-3" edge="1">
          <mxGeometry relative="1" as="geometry" />
        </mxCell>
        <mxCell id="9Da5NlRfkUuHMolCBsCd-14" value="&lt;font style=&quot;font-size: 24px;&quot;&gt;VGA&lt;/font&gt;" style="rounded=0;whiteSpace=wrap;html=1;" parent="1" vertex="1">
          <mxGeometry x="210" y="730" width="110" height="70" as="geometry" />
        </mxCell>
        <mxCell id="9Da5NlRfkUuHMolCBsCd-23" value="&lt;h1 style=&quot;margin-top: 0px;&quot;&gt;Accelerator Driver&lt;/h1&gt;" style="rounded=0;whiteSpace=wrap;html=1;align=center;" parent="1" vertex="1">
          <mxGeometry x="935" y="195" width="155" height="115" as="geometry" />
        </mxCell>
        <mxCell id="9Da5NlRfkUuHMolCBsCd-26" value="&lt;h1 style=&quot;margin-top: 0px;&quot;&gt;Visual Driver&lt;/h1&gt;" style="rounded=0;whiteSpace=wrap;html=1;align=center;" parent="1" vertex="1">
          <mxGeometry x="950" y="410" width="90" height="80" as="geometry" />
        </mxCell>
        <mxCell id="9Da5NlRfkUuHMolCBsCd-27" value="&lt;h1 style=&quot;margin-top: 0px;&quot;&gt;&lt;br&gt;&lt;/h1&gt;" style="text;html=1;whiteSpace=wrap;overflow=hidden;rounded=0;" parent="1" vertex="1">
          <mxGeometry x="950" y="395" width="240" height="40" as="geometry" />
        </mxCell>
        <mxCell id="9Da5NlRfkUuHMolCBsCd-29" value="&lt;h1 style=&quot;margin-top: 0px;&quot;&gt;&lt;span style=&quot;font-size: 15px;&quot;&gt;iowrite 32&lt;/span&gt;&lt;/h1&gt;" style="text;html=1;whiteSpace=wrap;overflow=hidden;rounded=0;rotation=0;" parent="1" vertex="1">
          <mxGeometry x="821" y="430" width="100" height="40" as="geometry" />
        </mxCell>
        <mxCell id="Z4UGgO07Boh3uOqIA6wf-3" value="input csv" style="rounded=0;whiteSpace=wrap;html=1;" vertex="1" parent="1">
          <mxGeometry x="1180" y="620" width="120" height="60" as="geometry" />
        </mxCell>
        <mxCell id="Z4UGgO07Boh3uOqIA6wf-4" value="output csv" style="rounded=0;whiteSpace=wrap;html=1;" vertex="1" parent="1">
          <mxGeometry x="1340" y="620" width="120" height="60" as="geometry" />
        </mxCell>
        <mxCell id="Z4UGgO07Boh3uOqIA6wf-6" value="" style="endArrow=classic;html=1;rounded=0;exitX=0;exitY=0.246;exitDx=0;exitDy=0;exitPerimeter=0;" edge="1" parent="1" source="CpTM82QqQ-CoCST9rDbI-1">
          <mxGeometry width="50" height="50" relative="1" as="geometry">
            <mxPoint x="590" y="310" as="sourcePoint" />
            <mxPoint x="510" y="223" as="targetPoint" />
          </mxGeometry>
        </mxCell>
        <mxCell id="Z4UGgO07Boh3uOqIA6wf-8" value="User Space" style="rounded=0;whiteSpace=wrap;html=1;" vertex="1" parent="1">
          <mxGeometry x="1160" y="195" width="290" height="285" as="geometry" />
        </mxCell>
        <mxCell id="Z4UGgO07Boh3uOqIA6wf-10" value="" style="endArrow=classic;html=1;rounded=0;exitX=0.5;exitY=0;exitDx=0;exitDy=0;entryX=0.282;entryY=1.003;entryDx=0;entryDy=0;entryPerimeter=0;" edge="1" parent="1" source="Z4UGgO07Boh3uOqIA6wf-3" target="Z4UGgO07Boh3uOqIA6wf-8">
          <mxGeometry width="50" height="50" relative="1" as="geometry">
            <mxPoint x="1380" y="620" as="sourcePoint" />
            <mxPoint x="1430" y="570" as="targetPoint" />
          </mxGeometry>
        </mxCell>
        <mxCell id="Z4UGgO07Boh3uOqIA6wf-11" value="" style="endArrow=classic;html=1;rounded=0;entryX=0.75;entryY=1;entryDx=0;entryDy=0;exitX=0.306;exitY=-0.002;exitDx=0;exitDy=0;exitPerimeter=0;" edge="1" parent="1" source="Z4UGgO07Boh3uOqIA6wf-4" target="Z4UGgO07Boh3uOqIA6wf-8">
          <mxGeometry width="50" height="50" relative="1" as="geometry">
            <mxPoint x="1380" y="620" as="sourcePoint" />
            <mxPoint x="1430" y="570" as="targetPoint" />
          </mxGeometry>
        </mxCell>
        <mxCell id="Z4UGgO07Boh3uOqIA6wf-13" value="" style="endArrow=classic;html=1;rounded=0;exitX=0;exitY=0.75;exitDx=0;exitDy=0;entryX=1;entryY=0.706;entryDx=0;entryDy=0;entryPerimeter=0;" edge="1" parent="1" source="9Da5NlRfkUuHMolCBsCd-26" target="CpTM82QqQ-CoCST9rDbI-1">
          <mxGeometry width="50" height="50" relative="1" as="geometry">
            <mxPoint x="1100" y="450" as="sourcePoint" />
            <mxPoint x="1150" y="400" as="targetPoint" />
          </mxGeometry>
        </mxCell>
        <mxCell id="Z4UGgO07Boh3uOqIA6wf-14" value="" style="endArrow=classic;html=1;rounded=0;exitX=0;exitY=0.75;exitDx=0;exitDy=0;entryX=0.997;entryY=0.355;entryDx=0;entryDy=0;entryPerimeter=0;" edge="1" parent="1" source="9Da5NlRfkUuHMolCBsCd-23" target="CpTM82QqQ-CoCST9rDbI-1">
          <mxGeometry width="50" height="50" relative="1" as="geometry">
            <mxPoint x="1000" y="390" as="sourcePoint" />
            <mxPoint x="1050" y="340" as="targetPoint" />
          </mxGeometry>
        </mxCell>
        <mxCell id="Z4UGgO07Boh3uOqIA6wf-15" value="" style="endArrow=classic;html=1;rounded=0;entryX=0.005;entryY=0.444;entryDx=0;entryDy=0;entryPerimeter=0;exitX=1.006;exitY=0.289;exitDx=0;exitDy=0;exitPerimeter=0;" edge="1" parent="1" source="CpTM82QqQ-CoCST9rDbI-1" target="9Da5NlRfkUuHMolCBsCd-23">
          <mxGeometry width="50" height="50" relative="1" as="geometry">
            <mxPoint x="1000" y="390" as="sourcePoint" />
            <mxPoint x="1050" y="340" as="targetPoint" />
          </mxGeometry>
        </mxCell>
        <mxCell id="Z4UGgO07Boh3uOqIA6wf-16" value="" style="endArrow=classic;html=1;rounded=0;exitX=0.5;exitY=1;exitDx=0;exitDy=0;entryX=0.5;entryY=0;entryDx=0;entryDy=0;" edge="1" parent="1" source="-hpIVWVpJWwLuPx6lPaj-3" target="9Da5NlRfkUuHMolCBsCd-14">
          <mxGeometry width="50" height="50" relative="1" as="geometry">
            <mxPoint x="260" y="580" as="sourcePoint" />
            <mxPoint x="310" y="530" as="targetPoint" />
          </mxGeometry>
        </mxCell>
        <mxCell id="Z4UGgO07Boh3uOqIA6wf-17" value="" style="endArrow=classic;html=1;rounded=0;exitX=0;exitY=0.246;exitDx=0;exitDy=0;exitPerimeter=0;" edge="1" parent="1">
          <mxGeometry width="50" height="50" relative="1" as="geometry">
            <mxPoint x="630" y="250" as="sourcePoint" />
            <mxPoint x="510" y="250" as="targetPoint" />
          </mxGeometry>
        </mxCell>
        <mxCell id="Z4UGgO07Boh3uOqIA6wf-18" value="" style="endArrow=classic;html=1;rounded=0;exitX=0;exitY=0.246;exitDx=0;exitDy=0;exitPerimeter=0;" edge="1" parent="1">
          <mxGeometry width="50" height="50" relative="1" as="geometry">
            <mxPoint x="630" y="280" as="sourcePoint" />
            <mxPoint x="510" y="280" as="targetPoint" />
          </mxGeometry>
        </mxCell>
        <mxCell id="Z4UGgO07Boh3uOqIA6wf-19" value="" style="endArrow=classic;html=1;rounded=0;exitX=0;exitY=0.246;exitDx=0;exitDy=0;exitPerimeter=0;" edge="1" parent="1">
          <mxGeometry width="50" height="50" relative="1" as="geometry">
            <mxPoint x="630" y="320" as="sourcePoint" />
            <mxPoint x="510" y="320" as="targetPoint" />
          </mxGeometry>
        </mxCell>
        <mxCell id="Z4UGgO07Boh3uOqIA6wf-20" value="" style="endArrow=classic;html=1;rounded=0;exitX=0;exitY=0.246;exitDx=0;exitDy=0;exitPerimeter=0;" edge="1" parent="1">
          <mxGeometry width="50" height="50" relative="1" as="geometry">
            <mxPoint x="510" y="120" as="sourcePoint" />
            <mxPoint x="630" y="120" as="targetPoint" />
          </mxGeometry>
        </mxCell>
        <mxCell id="Z4UGgO07Boh3uOqIA6wf-21" value="" style="endArrow=classic;html=1;rounded=0;exitX=0;exitY=0.246;exitDx=0;exitDy=0;exitPerimeter=0;" edge="1" parent="1">
          <mxGeometry width="50" height="50" relative="1" as="geometry">
            <mxPoint x="630" y="160" as="sourcePoint" />
            <mxPoint x="510" y="160" as="targetPoint" />
          </mxGeometry>
        </mxCell>
        <mxCell id="Z4UGgO07Boh3uOqIA6wf-22" value="" style="endArrow=classic;html=1;rounded=0;exitX=0;exitY=0.246;exitDx=0;exitDy=0;exitPerimeter=0;" edge="1" parent="1">
          <mxGeometry width="50" height="50" relative="1" as="geometry">
            <mxPoint x="630" y="190" as="sourcePoint" />
            <mxPoint x="510" y="190" as="targetPoint" />
          </mxGeometry>
        </mxCell>
        <mxCell id="Z4UGgO07Boh3uOqIA6wf-23" value="Intel Memory IP&amp;nbsp;&lt;span style=&quot;background-color: transparent; color: light-dark(rgb(0, 0, 0), rgb(255, 255, 255));&quot;&gt;Block&lt;/span&gt;" style="whiteSpace=wrap;html=1;aspect=fixed;" vertex="1" parent="1">
          <mxGeometry x="30" y="115" width="80" height="80" as="geometry" />
        </mxCell>
        <mxCell id="Z4UGgO07Boh3uOqIA6wf-24" value="Intel FP AddSub IP&amp;nbsp;&lt;span style=&quot;background-color: transparent; color: light-dark(rgb(0, 0, 0), rgb(255, 255, 255));&quot;&gt;Block&lt;/span&gt;" style="whiteSpace=wrap;html=1;aspect=fixed;" vertex="1" parent="1">
          <mxGeometry x="30" y="212.5" width="80" height="80" as="geometry" />
        </mxCell>
        <mxCell id="Z4UGgO07Boh3uOqIA6wf-25" value="Intel FP AddSub IP&amp;nbsp;&lt;span style=&quot;background-color: transparent; color: light-dark(rgb(0, 0, 0), rgb(255, 255, 255));&quot;&gt;Block&lt;/span&gt;" style="whiteSpace=wrap;html=1;aspect=fixed;" vertex="1" parent="1">
          <mxGeometry x="145" y="132.5" width="80" height="80" as="geometry" />
        </mxCell>
        <mxCell id="Z4UGgO07Boh3uOqIA6wf-26" value="Intel FP Mult IP&amp;nbsp;&lt;span style=&quot;background-color: transparent; color: light-dark(rgb(0, 0, 0), rgb(255, 255, 255));&quot;&gt;Block&lt;/span&gt;" style="whiteSpace=wrap;html=1;aspect=fixed;" vertex="1" parent="1">
          <mxGeometry x="240" y="132.5" width="80" height="80" as="geometry" />
        </mxCell>
        <mxCell id="Z4UGgO07Boh3uOqIA6wf-27" value="Intel FP INV_SQRT IP&amp;nbsp;&lt;span style=&quot;background-color: transparent; color: light-dark(rgb(0, 0, 0), rgb(255, 255, 255));&quot;&gt;Block&lt;/span&gt;" style="whiteSpace=wrap;html=1;aspect=fixed;" vertex="1" parent="1">
          <mxGeometry x="340" y="132.5" width="80" height="80" as="geometry" />
        </mxCell>
        <mxCell id="Z4UGgO07Boh3uOqIA6wf-28" value="Intel Memory IP&amp;nbsp;&lt;span style=&quot;background-color: transparent; color: light-dark(rgb(0, 0, 0), rgb(255, 255, 255));&quot;&gt;Block&lt;/span&gt;" style="whiteSpace=wrap;html=1;aspect=fixed;" vertex="1" parent="1">
          <mxGeometry x="80" y="430" width="80" height="80" as="geometry" />
        </mxCell>
        <mxCell id="Z4UGgO07Boh3uOqIA6wf-30" value="" style="endArrow=classic;startArrow=classic;html=1;rounded=0;exitX=1;exitY=0.5;exitDx=0;exitDy=0;" edge="1" parent="1" source="9Da5NlRfkUuHMolCBsCd-23">
          <mxGeometry width="50" height="50" relative="1" as="geometry">
            <mxPoint x="1210" y="440" as="sourcePoint" />
            <mxPoint x="1160" y="253" as="targetPoint" />
          </mxGeometry>
        </mxCell>
        <mxCell id="Z4UGgO07Boh3uOqIA6wf-31" value="ioctl" style="text;html=1;align=center;verticalAlign=middle;whiteSpace=wrap;rounded=0;" vertex="1" parent="1">
          <mxGeometry x="1100" y="220" width="60" height="30" as="geometry" />
        </mxCell>
        <mxCell id="Z4UGgO07Boh3uOqIA6wf-32" value="ioctl" style="text;html=1;align=center;verticalAlign=middle;whiteSpace=wrap;rounded=0;" vertex="1" parent="1">
          <mxGeometry x="1070" y="420" width="60" height="30" as="geometry" />
        </mxCell>
        <mxCell id="Z4UGgO07Boh3uOqIA6wf-33" value="" style="endArrow=classic;startArrow=classic;html=1;rounded=0;exitX=1;exitY=0.5;exitDx=0;exitDy=0;" edge="1" parent="1" source="9Da5NlRfkUuHMolCBsCd-26">
          <mxGeometry width="50" height="50" relative="1" as="geometry">
            <mxPoint x="1040" y="450" as="sourcePoint" />
            <mxPoint x="1159" y="450" as="targetPoint" />
          </mxGeometry>
        </mxCell>
      </root>
    </mxGraphModel>
  </diagram>
</mxfile>
